# xmcd
#
# Track frame offsets:
# 150
# 19047
# 40434
# 62971
# 79036
# 91589
# 110685
# 131985
# 148361
# 172479
#
# Disc length: 2641 seconds
#
#
# Revision: 0
# Processed by: cddbd v1.5.2PL0 Copyright (c) Steve Scherf et al.
# Submitted via: FreeRIP 2.96 
#
DISCID=960a4f0a
DTITLE=Rachel Yamagata - Chesapeake
DYEAR=2011
DGENRE=indie
TTITLE0=Even If I Don't
TTITLE1=Starlight
TTITLE2=Saturday Morning
TTITLE3=You Won't Let Me
TTITLE4=Stick Around
TTITLE5=Miles on a Car
TTITLE6=The Way It Seems to Go
TTITLE7=I Don't Want to Be Your Mother
TTITLE8=Full On
TTITLE9=Dealbreaker
EXTD=
EXTT0=
EXTT1=
EXTT2=
EXTT3=
EXTT4=
EXTT5=
EXTT6=
EXTT7=
EXTT8=
EXTT9=
PLAYORDER=
